<svg width="17" height="12" viewBox="0 0 17 12" fill="none" xmlns="http://www.w3.org/2000/svg">
<path d="M15.2292 0H1.77083C0.794752 0 0 0.794752 0 1.77086V9.56255C0 10.5386 0.794752 11.3334 1.77083 11.3334H15.2292C16.2052 11.3334 17 10.5386 17 9.56255V1.77086C17 0.794752 16.2053 0 15.2292 0ZM6.24751 6.29287L1.9975 9.83455C1.93163 9.8898 1.85088 9.91673 1.77083 9.91673C1.66883 9.91673 1.56825 9.87354 1.49813 9.78923C1.37275 9.63905 1.39331 9.41523 1.54345 9.28986L5.79346 5.74817C5.94364 5.62349 6.16746 5.64404 6.29283 5.79349C6.41821 5.94437 6.39769 6.16819 6.24751 6.29287ZM8.50002 6.38707C8.11044 6.38707 7.72014 6.27089 7.38014 6.03787L1.57108 2.06338C1.40958 1.95288 1.3685 1.73258 1.47827 1.57108C1.58808 1.40958 1.80835 1.36777 1.97058 1.479L7.77964 5.45346C8.21669 5.75239 8.78195 5.75239 9.2197 5.45346L15.0288 1.479C15.191 1.3692 15.4113 1.40958 15.5211 1.57108C15.6316 1.73258 15.5905 1.95288 15.429 2.06338L9.61989 6.03787C9.27989 6.27089 8.88959 6.38707 8.50002 6.38707ZM15.5012 9.7892C15.4311 9.8735 15.3305 9.9167 15.2292 9.9167C15.1492 9.9167 15.0691 9.88977 15.0025 9.83452L10.7525 6.29284C10.6023 6.16746 10.5818 5.94433 10.7072 5.79346C10.8326 5.64401 11.0557 5.62346 11.2066 5.74814L15.4566 9.28982C15.606 9.4152 15.6266 9.63902 15.5012 9.7892Z" fill="white" fill-opacity="0.4"/>
</svg>
