<svg width="17" height="17" viewBox="0 0 17 17" fill="none" xmlns="http://www.w3.org/2000/svg">
<path fill-rule="evenodd" clip-rule="evenodd" d="M15 0C16.1046 0 17 0.89543 17 2V15C17 16.1046 16.1046 17 15 17H2C0.895431 17 0 16.1046 0 15V2C0 0.895431 0.89543 0 2 0H15ZM12.3495 9.74915L13.7167 11.1166C14.094 11.4932 14.0952 12.1052 13.7167 12.4837L13.4888 12.7116L10.7541 9.97712L10.9821 9.74915C11.3475 9.38376 11.9848 9.38438 12.3495 9.74915ZM10.2858 10.4202C9.99813 10.643 9.58773 10.6341 9.32487 10.3707L6.62172 7.66566C6.35825 7.4022 6.34938 6.99149 6.57224 6.70452L3.84387 3.9763C2.67014 5.34445 2.71603 7.40598 4.01145 8.7014L8.28913 12.9809C9.53224 14.224 11.5685 14.3889 13.0143 13.1485L10.2858 10.4202ZM5.87618 3.27381L7.24331 4.64125C7.62059 5.0179 7.62183 5.62987 7.24331 6.00839L7.01542 6.2363L4.28076 3.50178L4.50874 3.27381C4.87411 2.90842 5.51141 2.90904 5.87618 3.27381Z" fill="white" fill-opacity="0.4"/>
</svg>
