<svg width="17" height="17" viewBox="0 0 17 17" fill="none" xmlns="http://www.w3.org/2000/svg">
<path d="M8.02608 16.9983V12.7627C7.06022 12.8062 6.1057 12.9893 5.19189 13.3067C5.83875 15.2903 6.86542 16.6928 8.02608 16.9983Z" fill="white" fill-opacity="0.4"/>
<path d="M4.93098 12.3818C5.92999 12.043 6.97246 11.851 8.02611 11.8117V8.97571H4.48633C4.51336 10.1237 4.66243 11.2656 4.93098 12.3818Z" fill="white" fill-opacity="0.4"/>
<path d="M4.48633 8.0241H8.02611V5.18814C6.97241 5.14853 5.92994 4.95614 4.93098 4.61707C4.66233 5.7335 4.51326 6.87571 4.48633 8.0241Z" fill="white" fill-opacity="0.4"/>
<path d="M8.02608 4.23564V0C6.86542 0.305553 5.83875 1.70808 5.19189 3.6936C6.10581 4.01025 7.06033 4.1928 8.02608 4.23564Z" fill="white" fill-opacity="0.4"/>
<path d="M11.8078 13.3068C10.894 12.99 9.93939 12.8073 8.97363 12.7643V16.9999C10.1343 16.693 11.161 15.2905 11.8078 13.3068Z" fill="white" fill-opacity="0.4"/>
<path d="M12.0688 4.61755C11.0698 4.95637 10.0273 5.1484 8.97363 5.1877V8.02368H12.5134C12.4864 6.87564 12.3373 5.73379 12.0688 4.61755Z" fill="white" fill-opacity="0.4"/>
<path d="M12.5134 8.97571H8.97363V11.8117C10.0273 11.8513 11.0698 12.0437 12.0688 12.3828C12.3374 11.2663 12.4865 10.1241 12.5134 8.97571Z" fill="white" fill-opacity="0.4"/>
<path d="M5.91633 0.337769C4.68725 0.734311 3.56383 1.40622 2.63086 2.30284C3.14772 2.71031 3.70901 3.0574 4.30392 3.3375C4.64038 2.24095 5.18826 1.22169 5.91633 0.337769Z" fill="white" fill-opacity="0.4"/>
<path d="M2.63086 14.6968C3.56383 15.5933 4.68725 16.2653 5.91633 16.6618C5.18842 15.7783 4.64053 14.7596 4.30392 13.6636C3.70906 13.9432 3.14777 14.2898 2.63086 14.6968Z" fill="white" fill-opacity="0.4"/>
<path d="M13.4602 8.02413H17C16.9015 6.17676 16.2074 4.41184 15.0224 2.99609C14.3922 3.50419 13.7007 3.93029 12.9644 4.26442C13.2689 5.49507 13.4352 6.75616 13.4602 8.02413Z" fill="white" fill-opacity="0.4"/>
<path d="M4.03561 4.26417C3.2993 3.93035 2.60785 3.50455 1.97756 2.99683C0.792817 4.41231 0.0986683 6.17692 0 8.02393H3.53979C3.5648 6.75596 3.73111 5.49487 4.03561 4.26417Z" fill="white" fill-opacity="0.4"/>
<path d="M12.9644 12.7355C13.7007 13.0693 14.3921 13.4951 15.0224 14.0028C16.2072 12.5873 16.9013 10.8227 17 8.97571H13.4602C13.4352 10.2437 13.2689 11.5048 12.9644 12.7355Z" fill="white" fill-opacity="0.4"/>
<path d="M11.0835 16.6618C12.3126 16.2652 13.436 15.5933 14.369 14.6967C13.8521 14.2892 13.2908 13.9421 12.6959 13.662C12.3595 14.7586 11.8116 15.7779 11.0835 16.6618Z" fill="white" fill-opacity="0.4"/>
<path d="M8.97363 0.00128174V4.23692C9.93949 4.19345 10.894 4.01028 11.8078 3.69296C11.161 1.70936 10.1343 0.306835 8.97363 0.00128174Z" fill="white" fill-opacity="0.4"/>
<path d="M4.03555 12.7355C3.731 11.5048 3.56469 10.2437 3.53973 8.97571H0C0.098461 10.8231 0.792609 12.588 1.97756 14.0038C2.60774 13.4957 3.29919 13.0696 4.03555 12.7355Z" fill="white" fill-opacity="0.4"/>
<path d="M14.369 2.30284C13.436 1.40627 12.3126 0.734311 11.0835 0.337769C11.8114 1.22127 12.3593 2.24001 12.6959 3.33604C13.2908 3.05647 13.8521 2.70984 14.369 2.30284Z" fill="white" fill-opacity="0.4"/>
</svg>
