<svg width="138" height="35" viewBox="0 0 138 35" fill="none" xmlns="http://www.w3.org/2000/svg">
<path d="M43.524 23.18C42.252 23.18 41.1 22.904 40.068 22.352C39.048 21.788 38.244 21.014 37.656 20.03C37.08 19.046 36.792 17.936 36.792 16.7C36.792 15.464 37.086 14.354 37.674 13.37C38.262 12.386 39.066 11.618 40.086 11.066C41.118 10.502 42.27 10.22 43.542 10.22C44.574 10.22 45.516 10.4 46.368 10.76C47.22 11.12 47.94 11.642 48.528 12.326L47.016 13.748C46.104 12.764 44.982 12.272 43.65 12.272C42.786 12.272 42.012 12.464 41.328 12.848C40.644 13.22 40.11 13.742 39.726 14.414C39.342 15.086 39.15 15.848 39.15 16.7C39.15 17.552 39.342 18.314 39.726 18.986C40.11 19.658 40.644 20.186 41.328 20.57C42.012 20.942 42.786 21.128 43.65 21.128C44.982 21.128 46.104 20.63 47.016 19.634L48.528 21.074C47.94 21.758 47.214 22.28 46.35 22.64C45.498 23 44.556 23.18 43.524 23.18ZM62.2022 10.4L56.7122 23H54.4082L48.9002 10.4H51.4382L55.6322 20.12L59.8622 10.4H62.2022ZM62.6365 17.06H67.5865V18.932H62.6365V17.06ZM81.8383 23L81.8203 14.648L77.6803 21.56H76.6363L72.4963 14.756V23H70.2643V10.4H72.1903L77.1943 18.752L82.1083 10.4H84.0343L84.0523 23H81.8383ZM95.6277 20.084H89.3277L88.0857 23H85.6737L91.3437 10.4H93.6477L99.3357 23H96.8877L95.6277 20.084ZM94.8537 18.248L92.4777 12.74L90.1197 18.248H94.8537ZM105.276 17.726L103.278 19.778V23H100.938V10.4H103.278V16.862L109.506 10.4H112.134L106.842 16.034L112.458 23H109.722L105.276 17.726ZM123.501 21.038V23H114.051V10.4H123.249V12.362H116.391V15.638H122.475V17.564H116.391V21.038H123.501ZM134.354 23L131.78 19.31C131.672 19.322 131.51 19.328 131.294 19.328H128.45V23H126.11V10.4H131.294C132.386 10.4 133.334 10.58 134.138 10.94C134.954 11.3 135.578 11.816 136.01 12.488C136.442 13.16 136.658 13.958 136.658 14.882C136.658 15.83 136.424 16.646 135.956 17.33C135.5 18.014 134.84 18.524 133.976 18.86L136.874 23H134.354ZM134.3 14.882C134.3 14.078 134.036 13.46 133.508 13.028C132.98 12.596 132.206 12.38 131.186 12.38H128.45V17.402H131.186C132.206 17.402 132.98 17.186 133.508 16.754C134.036 16.31 134.3 15.686 134.3 14.882Z" fill="#1A1C34"/>
<g clip-path="url(#clip0)">
<path fill-rule="evenodd" clip-rule="evenodd" d="M5.00001 0H26.1765V6.9951L21.1765 11.9951V5.00001H5.00001V0ZM5.00001 14.9953C5.00121 14.485 5.19647 13.9751 5.58579 13.5858C6.36684 12.8047 7.63316 12.8047 8.41421 13.5858L14 19.1716L21.1765 11.9951V17.652L15.4142 23.4142C14.6332 24.1953 13.3668 24.1953 12.5858 23.4142L5.58579 16.4142C5.19647 16.0249 5.00121 15.515 5.00001 15.0047V30H21.1765V35H0V5.00001H5.00001V14.9953ZM21.1765 30V17.652L26.1765 12.652V30H21.1765ZM26.1765 12.652V6.9951L27.5858 5.58579C28.3668 4.80474 29.6332 4.80474 30.4142 5.58579C31.1953 6.36684 31.1953 7.63316 30.4142 8.41421L26.1765 12.652Z" fill="#1A1C34"/>
</g>
<defs>
<clipPath id="clip0">
<rect width="31" height="35" fill="white"/>
</clipPath>
</defs>
</svg>
