<svg width="30" height="30" viewBox="0 0 30 30" fill="none" xmlns="http://www.w3.org/2000/svg">
<path fill-rule="evenodd" clip-rule="evenodd" d="M27.6806 0.140527C27.8164 0.224516 27.9285 0.3418 28.0063 0.481258C28.0841 0.620716 28.1249 0.777726 28.125 0.937402V29.0624C28.125 29.311 28.0262 29.5495 27.8504 29.7253C27.6746 29.9011 27.4361 29.9999 27.1875 29.9999H21.5625C21.3139 29.9999 21.0754 29.9011 20.8996 29.7253C20.7238 29.5495 20.625 29.311 20.625 29.0624V26.2499H18.75V29.0624C18.75 29.311 18.6512 29.5495 18.4754 29.7253C18.2996 29.9011 18.0611 29.9999 17.8125 29.9999H0.9375C0.68886 29.9999 0.450403 29.9011 0.274587 29.7253C0.0987721 29.5495 0 29.311 0 29.0624V18.7499C0.000149338 18.5532 0.0621527 18.3616 0.177234 18.2021C0.292316 18.0426 0.454646 17.9233 0.64125 17.8612L11.25 14.3249V8.4374C11.25 8.26344 11.2984 8.09291 11.3898 7.9449C11.4812 7.79688 11.612 7.67721 11.7675 7.59928L26.7675 0.0992766C26.9106 0.0276626 27.0696 -0.00614306 27.2294 0.00107735C27.3893 0.00829776 27.5446 0.0563039 27.6806 0.140527ZM11.25 16.3012L1.875 19.4249V28.1249H11.25V16.3012ZM13.125 28.1249H16.875V25.3124C16.875 25.0638 16.9738 24.8253 17.1496 24.6495C17.3254 24.4737 17.5639 24.3749 17.8125 24.3749H21.5625C21.8111 24.3749 22.0496 24.4737 22.2254 24.6495C22.4012 24.8253 22.5 25.0638 22.5 25.3124V28.1249H26.25V2.45428L13.125 9.01678V28.1249Z" fill="#1A1C34"/>
<path d="M3.75 20.625H5.625V22.5H3.75V20.625ZM7.5 20.625H9.375V22.5H7.5V20.625ZM3.75 24.375H5.625V26.25H3.75V24.375ZM7.5 24.375H9.375V26.25H7.5V24.375ZM15 16.875H16.875V18.75H15V16.875ZM18.75 16.875H20.625V18.75H18.75V16.875ZM15 20.625H16.875V22.5H15V20.625ZM18.75 20.625H20.625V22.5H18.75V20.625ZM22.5 16.875H24.375V18.75H22.5V16.875ZM22.5 20.625H24.375V22.5H22.5V20.625ZM15 13.125H16.875V15H15V13.125ZM18.75 13.125H20.625V15H18.75V13.125ZM22.5 13.125H24.375V15H22.5V13.125ZM15 9.375H16.875V11.25H15V9.375ZM18.75 9.375H20.625V11.25H18.75V9.375ZM22.5 9.375H24.375V11.25H22.5V9.375ZM22.5 5.625H24.375V7.5H22.5V5.625Z" fill="#1A1C34"/>
</svg>
