<svg width="30" height="30" viewBox="0 0 30 30" fill="none" xmlns="http://www.w3.org/2000/svg">
<g clip-path="url(#clip0)">
<path d="M15.0039 10.3125C15.0039 11.0584 14.7076 11.7738 14.1801 12.3012C13.6527 12.8287 12.9373 13.125 12.1914 13.125C11.4455 13.125 10.7301 12.8287 10.2027 12.3012C9.67522 11.7738 9.37891 11.0584 9.37891 10.3125C9.37891 9.56658 9.67522 8.85121 10.2027 8.32376C10.7301 7.79632 11.4455 7.5 12.1914 7.5C12.9373 7.5 13.6527 7.79632 14.1801 8.32376C14.7076 8.85121 15.0039 9.56658 15.0039 10.3125Z" fill="#1A1C34"/>
<path d="M22.5 0H7.5C6.50544 0 5.55161 0.395088 4.84835 1.09835C4.14509 1.80161 3.75 2.75544 3.75 3.75V26.25C3.75 27.2446 4.14509 28.1984 4.84835 28.9016C5.55161 29.6049 6.50544 30 7.5 30H22.5C23.4946 30 24.4484 29.6049 25.1516 28.9016C25.8549 28.1984 26.25 27.2446 26.25 26.25V3.75C26.25 2.75544 25.8549 1.80161 25.1516 1.09835C24.4484 0.395088 23.4946 0 22.5 0V0ZM5.625 3.75C5.625 3.25272 5.82254 2.77581 6.17417 2.42417C6.52581 2.07254 7.00272 1.875 7.5 1.875H22.5C22.9973 1.875 23.4742 2.07254 23.8258 2.42417C24.1775 2.77581 24.375 3.25272 24.375 3.75V18.75L20.4694 14.8444C20.3731 14.7482 20.257 14.6742 20.1293 14.6274C20.0015 14.5807 19.8651 14.5623 19.7295 14.5735C19.5939 14.5847 19.4624 14.6254 19.3441 14.6925C19.2258 14.7597 19.1235 14.8518 19.0444 14.9625L15 20.625L10.9406 18.1875C10.7611 18.08 10.5509 18.0357 10.3433 18.0615C10.1357 18.0873 9.94268 18.1818 9.795 18.33L5.625 22.5V3.75Z" fill="#1A1C34"/>
</g>
<defs>
<clipPath id="clip0">
<rect width="30" height="30" fill="white"/>
</clipPath>
</defs>
</svg>
