<svg width="30" height="30" viewBox="0 0 30 30" fill="none" xmlns="http://www.w3.org/2000/svg">
<path d="M28.0221 7.66846C28.007 7.50928 27.9331 7.36145 27.8148 7.25385C27.6966 7.14625 27.5424 7.08663 27.3825 7.08663H26.4326L26.3184 5.88755L25.9546 2.04401C22.1084 2.28369 18.4042 3.15478 15.0002 5.36369C11.5955 3.15478 7.89143 2.28369 4.04523 2.04401L3.68138 5.88755L3.56719 7.08663H2.61662C2.45672 7.08663 2.30258 7.14626 2.1843 7.25386C2.06603 7.36146 1.99214 7.5093 1.97706 7.66848L0.410156 24.2156L14.9996 27.9562L29.5896 24.2156L28.0221 7.66846ZM5.31534 5.88755L5.51253 3.80477C8.25128 4.11882 10.5837 4.79604 12.6744 5.88755C13.1671 6.1445 13.6471 6.42468 14.1145 6.7281L14.6669 7.08663L15.0002 7.30307L15.3335 7.08663L15.8853 6.7281C16.3533 6.42401 16.8331 6.14383 17.3247 5.88755C19.4161 4.79604 21.7485 4.11882 24.4873 3.80477L24.6844 5.88755L24.798 7.08663L24.8352 7.48101L24.9865 9.07446L26.1591 21.4563C24.2524 21.4657 22.3511 21.6594 20.4817 22.0346C18.3259 22.4967 16.52 23.2482 15.0002 24.3205C13.3477 23.193 11.4821 22.4151 9.51808 22.0346C7.64873 21.659 5.74741 21.4654 3.84073 21.4563L5.01325 9.07448L5.16463 7.48102L5.20181 7.08664L5.31534 5.88755ZM2.3701 23.073C7.17769 23.0464 11.6845 23.5331 14.8668 26.2778L2.3701 23.073ZM15.1343 26.2771C18.3159 23.5331 22.8228 23.0464 27.6297 23.073L15.1343 26.2771Z" fill="#1A1C34"/>
</svg>
