<svg width="24" height="24" viewBox="0 0 24 24" fill="none" xmlns="http://www.w3.org/2000/svg">
<path d="M12.0728 0.325C14.3228 0.325 16.3311 0.791666 18.0978 1.725C19.8644 2.64167 21.2394 3.93333 22.2228 5.6C23.2228 7.26667 23.7228 9.16667 23.7228 11.3C23.7228 13.4333 23.3311 15.1083 22.5478 16.325C21.7644 17.5417 20.6728 18.15 19.2728 18.15C18.4728 18.15 17.8061 17.95 17.2728 17.55C16.7561 17.1333 16.4228 16.5417 16.2728 15.775C15.7728 16.5417 15.1144 17.1333 14.2978 17.55C13.4978 17.95 12.5728 18.15 11.5228 18.15C10.3561 18.15 9.30609 17.875 8.37275 17.325C7.43942 16.775 6.70609 16.0167 6.17275 15.05C5.65609 14.0667 5.39775 12.9583 5.39775 11.725C5.39775 10.5083 5.65609 9.41667 6.17275 8.45C6.70609 7.46667 7.43942 6.70833 8.37275 6.175C9.30609 5.625 10.3561 5.35 11.5228 5.35C12.4894 5.35 13.3644 5.53333 14.1478 5.9C14.9311 6.25 15.5811 6.775 16.0978 7.475V5.45H18.2728V14.45C18.2728 15.0667 18.4061 15.525 18.6728 15.825C18.9394 16.1083 19.2811 16.25 19.6978 16.25C20.4311 16.25 20.9978 15.825 21.3978 14.975C21.8144 14.1083 22.0228 12.8917 22.0228 11.325C22.0228 9.475 21.6061 7.85 20.7728 6.45C19.9394 5.03333 18.7644 3.93333 17.2478 3.15C15.7478 2.36667 14.0228 1.975 12.0728 1.975C10.1061 1.975 8.36442 2.38333 6.84775 3.2C5.34775 4.01667 4.18109 5.15833 3.34775 6.625C2.51442 8.09167 2.09775 9.76667 2.09775 11.65C2.09775 13.55 2.50609 15.2333 3.32275 16.7C4.15609 18.1667 5.31442 19.3083 6.79775 20.125C8.29775 20.9583 10.0228 21.375 11.9728 21.375C12.7894 21.375 13.6228 21.2833 14.4728 21.1C15.3228 20.9167 16.0978 20.6417 16.7978 20.275L17.3478 21.875C16.6144 22.2583 15.7644 22.55 14.7978 22.75C13.8311 22.95 12.8894 23.05 11.9728 23.05C9.68942 23.05 7.65609 22.5583 5.87275 21.575C4.10609 20.6083 2.73109 19.2583 1.74775 17.525C0.764421 15.7917 0.272754 13.8333 0.272754 11.65C0.272754 9.46667 0.764421 7.51667 1.74775 5.8C2.74775 4.08333 4.13942 2.74167 5.92275 1.775C7.72275 0.808333 9.77275 0.325 12.0728 0.325ZM11.8728 16.2C12.6894 16.2 13.4144 16.0167 14.0478 15.65C14.6978 15.2833 15.2061 14.7667 15.5728 14.1C15.9561 13.4167 16.1478 12.625 16.1478 11.725C16.1478 10.825 15.9561 10.0417 15.5728 9.375C15.2061 8.69167 14.6978 8.175 14.0478 7.825C13.4144 7.45833 12.6894 7.275 11.8728 7.275C10.6061 7.275 9.58109 7.68333 8.79775 8.5C8.01442 9.3 7.62275 10.375 7.62275 11.725C7.62275 13.075 8.01442 14.1583 8.79775 14.975C9.59775 15.7917 10.6228 16.2 11.8728 16.2Z" fill="#1A1C34"/>
</svg>
