
<svg width="28" height="28" viewBox="0 0 28 28" fill="none" xmlns="http://www.w3.org/2000/svg">
<path d="M24.0734 0.453247H3.82233C2.00774 0.453247 0.53125 1.92974 0.53125 3.74433V17.6817C0.53125 19.496 2.00744 20.9722 3.82233 20.9722H11.0173V26.5445H5.44052C5.1927 26.5445 4.9921 26.7451 4.9921 26.993C4.9921 27.2408 5.1927 27.4414 5.44052 27.4414H11.4658H16.4297H22.455C22.7028 27.4414 22.9034 27.2408 22.9034 26.993C22.9034 26.7451 22.7028 26.5445 22.455 26.5445H16.8781V20.9722H24.0731C25.8871 20.9722 27.363 19.496 27.363 17.6817V3.74433C27.3633 1.92974 25.8874 0.453247 24.0734 0.453247ZM3.82233 1.35008H24.0734C25.393 1.35008 26.4665 2.42419 26.4665 3.74433V14.312H1.42838V3.74433C1.42838 2.42389 2.50219 1.35008 3.82233 1.35008ZM15.9816 26.5445H11.9145V20.9722H15.9816V26.5445V26.5445ZM24.0734 20.0754H16.43H11.4661H3.82263C2.50249 20.0754 1.42838 19.0016 1.42838 17.6817V15.2092H26.4665V17.6817C26.4665 19.0016 25.393 20.0754 24.0734 20.0754Z" fill="#1A1C34"/>
<path d="M13.9479 16.0564C13.0221 16.0564 12.269 16.8091 12.269 17.7341C12.269 18.659 13.0221 19.4118 13.9479 19.4118C14.8732 19.4118 15.6256 18.659 15.6256 17.7341C15.6256 16.8091 14.8732 16.0564 13.9479 16.0564ZM13.9479 18.5149C13.5168 18.5149 13.1659 18.1646 13.1659 17.7341C13.1659 17.3036 13.5165 16.9532 13.9479 16.9532C14.3784 16.9532 14.7288 17.3036 14.7288 17.7341C14.7288 18.1646 14.3784 18.5149 13.9479 18.5149Z" fill="#1A1C34"/>
</svg>
